<svg xmlns="http://www.w3.org/2000/svg" viewBox="0 0 354.61 72.4"><defs><style>.cls-1{fill:#003d7c;}.cls-2{fill:#fff;}.cls-2,.cls-3,.cls-4{fill-rule:evenodd;}.cls-3{fill:#ee7203;}.cls-4{fill:#f07f00;}</style></defs><title>Zasób 1</title><g id="Warstwa_2" data-name="Warstwa 2"><g id="Warstwa_1-2" data-name="Warstwa 1"><rect class="cls-1" width="354.61" height="72.4"/><path class="cls-2" d="M9.24,58.51l-.58,5.28C32,62.1,68.8,62.91,66.7,45.11c-2,9.39-27.11,14-57.46,13.4"/><path class="cls-2" d="M9.65,54.18C33,55.6,65,51.94,65.23,40.17c.2-4.72-2.45-6.7-6.31-7.55l-14-2.93c-2.38-.48-5.32-1.68-5.4-3.09-.63-3,15.5-4.22,34.44-3.19L72.2,18.66c-23.82-.18-36.36,3-36.25,7.18s2.85,4.48,4.74,5.33,11.69,2.59,17.75,3.48c2.54.54,4.38,2.42,4,4.24C62.13,47.18,39.17,52.1,10.2,49.2l-.55,5"/><path class="cls-2" d="M68.8,9.43c-37.47.31-40.53,10-40.81,15.51s5.11,6.76,6.86,7.41A6.61,6.61,0,0,1,32.27,28C32,16.69,45.1,15.36,70.73,14.67L68.8,9.43"/><path class="cls-2" d="M151,8c1.62,13.42-4.68,39.19-11.1,55.15l-4.65-1.8C143,39,147.87,18.55,147.23,8.4L151,8"/><path class="cls-2" d="M157.48,8.11c2.38,13.32-2.47,39.31-8,55.51L144.74,62c6.53-22.62,10.24-43.24,9-53.37l3.71-.53"/><path class="cls-2" d="M94.82,9.39c3.76,13.11-1,38.68-8.28,54.7L81.8,62.47C91.22,40.1,94.53,20,91.78,9.91l3-.52"/><path class="cls-2" d="M89.19,10.07c2.83,13.3-3.77,38.5-12.14,54l-4.62-1.94c11-21.69,15.37-41.74,13-51.82l3.75-.26"/><path class="cls-2" d="M117.87,64.42C84.25,53.69,79.72,27.94,114,9.33l5,.74C82.5,31,91,52,121.41,63.25l-3.54,1.16"/><path class="cls-2" d="M126.44,61.29c-33.6-9.68-38.14-33-3.89-49.77l5,.67c-36.47,18.88-28,37.91,2.43,48l-3.54,1.05"/><polygon class="cls-3" points="191.24 29.08 196.4 29.08 195.66 20.39 191.24 29.08"/><path class="cls-4" d="M169,44.68h177V8.16H169Zm28.15-3.19-.51-6.16h-8l-3.13,6.16H178l15.47-30.14h9.42L206,41.49ZM238.5,22.39,230,23a7.44,7.44,0,0,0-.68-4.17,2.88,2.88,0,0,0-2.68-1.33c-1.75,0-3.11,1.08-4.11,3.22A25,25,0,0,0,221,25.4a29.32,29.32,0,0,0-.83,5.09,4.82,4.82,0,0,0,.79,3.29,3.15,3.15,0,0,0,2.65,1.14,3.86,3.86,0,0,0,2.87-1.14,11.61,11.61,0,0,0,2.11-4l8,1a24.79,24.79,0,0,1-2.18,4.58,16.72,16.72,0,0,1-2.9,3.33,13.14,13.14,0,0,1-9,3.36,10.82,10.82,0,0,1-8.74-3.77c-2.12-2.51-3.08-5.82-2.86-10a21.06,21.06,0,0,1,3.61-10.79A15.82,15.82,0,0,1,220,12.44a14.56,14.56,0,0,1,7.07-1.77q6.89,0,9.9,5.06a11.67,11.67,0,0,1,1.48,6.67m13.89,19.09h-8.69l5.08-23.3h-6.42l1.53-6.93h21.73l-1.51,6.93h-6.63Zm19.77,0h-8.53l6.61-30.14h8.55Zm14.64,0-4.23-30.14h9.17l1.61,13.84.27,2.29.27,2.24.12,1.07c.24-.58.45-1,.57-1.32l1.4-2.9,1.26-2.66,6-12.57h7.33L295.52,41.49ZM335,18H322.13l-1.05,4.72H331.9l-1.44,6.54H319.67l-1.17,5.34h13.42l-1.53,6.93H308.26l6.59-30.14h21.59Z"/><path class="cls-2" d="M182.72,52.76,177.78,63.4H175L174.87,57a3.47,3.47,0,0,0-.18.41l-.31.73c0,.07-.16.34-.37.82l-2,4.42H169.4l-.62-10.64h2.94l.13,4.81,0,.6v.62a1.82,1.82,0,0,0,0,.32.93.93,0,0,1,.07-.23c.12-.31.24-.65.41-1l2.37-5.11h2.56l.11,4.81,0,.63v.91l.17-.44c.13-.33.22-.54.27-.65l.29-.66,2.07-4.6h2.44m15,0L192.81,63.4H190L189.89,57c-.09.2-.15.33-.18.41l-.31.73c0,.07-.15.34-.36.82l-2,4.42h-2.6l-.63-10.64h3l.14,4.81,0,.6v.62c0,.05,0,.16,0,.32a1,1,0,0,1,.11-.23c.09-.31.24-.65.39-1l2.37-5.11h2.54l.13,4.81,0,.63v.54c0,.07,0,.21,0,.37l.16-.44.26-.65.32-.66,2-4.6Zm15,0L207.84,63.4h-2.78L204.93,57c-.09.2-.14.33-.19.41l-.31.73c0,.07-.15.34-.35.82l-2,4.42h-2.6l-.64-10.64h3l.13,4.81,0,.6v.62a2.62,2.62,0,0,0,0,.32,1.6,1.6,0,0,1,.09-.23c.12-.31.26-.65.43-1l2.34-5.11h2.57l.1,4.81,0,.63v.54c0,.07,0,.21,0,.37l.18-.44c.11-.33.21-.54.24-.65l.3-.66,2.07-4.6Zm3.12,7.81-.63,2.83h-2.91l.63-2.83ZM228,55.23l-2.76.68a1.22,1.22,0,0,0-.54-.74,1.81,1.81,0,0,0-1.05-.27,1.3,1.3,0,0,0-.74.19.59.59,0,0,0-.3.5.48.48,0,0,0,.17.44,3,3,0,0,0,.76.36c1.16.41,1.85.68,2.1.79a3.65,3.65,0,0,1,.79.54,2.47,2.47,0,0,1,.91,2.11,3.44,3.44,0,0,1-1,2.34,4.13,4.13,0,0,1-1.64,1,6.4,6.4,0,0,1-2.15.37,6.08,6.08,0,0,1-3.27-.84,3.61,3.61,0,0,1-1-.86,4.66,4.66,0,0,1-.62-1.25l3.09-.6a1.54,1.54,0,0,0,.66.86,2.73,2.73,0,0,0,1.28.26,1.7,1.7,0,0,0,.88-.24.71.71,0,0,0,.35-.56.51.51,0,0,0-.14-.37.75.75,0,0,0-.36-.26l-2-.77c-1.54-.58-2.29-1.53-2.23-2.87a3.4,3.4,0,0,1,1.27-2.51,5,5,0,0,1,3.25-1,5.25,5.25,0,0,1,2.81.69,3.14,3.14,0,0,1,1.51,2m8.31,1.55L238,63.4h-3.13l-1-4.39-1.7,1.79-.57,2.6h-3L231,52.76h2.95l-.44,2-.15.65-.15.78-.2.9-.13.56a6.78,6.78,0,0,1,.92-1.32l.84-.92.82-.93,1.6-1.71h3Zm8.82-4L242.81,63.4h-3l2.32-10.64Zm6.24,8.45h-2.84l-1.1,2.19H244.8l5.46-10.64h3.32l1.09,10.64h-3.11ZM251.31,59,251,55.95,249.48,59Zm11.71.27,2.84.37a8.72,8.72,0,0,1-.78,1.61,5.17,5.17,0,0,1-1,1.17,4.59,4.59,0,0,1-3.17,1.19,3.84,3.84,0,0,1-3.08-1.33,4.83,4.83,0,0,1-1-3.5A7.4,7.4,0,0,1,258.05,55,5.76,5.76,0,0,1,260,53.14a5.17,5.17,0,0,1,2.5-.63,3.72,3.72,0,0,1,3.49,1.8,4,4,0,0,1,.53,2.34l-3,.22a2.59,2.59,0,0,0-.22-1.47,1,1,0,0,0-1-.47,1.67,1.67,0,0,0-1.46,1.14,9.88,9.88,0,0,0-.51,1.64,8.32,8.32,0,0,0-.28,1.81,1.6,1.6,0,0,0,.26,1.16,1.11,1.11,0,0,0,.93.4,1.35,1.35,0,0,0,1-.4,3.76,3.76,0,0,0,.76-1.4m10.53-4.1-1.79,8.22h-3.07l1.79-8.22h-2.25l.55-2.45h7.66l-.54,2.45Zm7.87-2.42L279.08,63.4h-3l2.32-10.64Zm11.58,0L287.67,63.4H284.6l-1.51-10.64h3.24l.57,4.89.08.79.1.81,0,.37c.1-.2.17-.36.2-.46l.48-1,.45-.94,2.14-4.43Zm7.87,8.18-.54,2.46h-7.82l2.34-10.64h7.63l-.54,2.32H297.4L297,56.74h3.82l-.5,2.32h-3.82l-.4,1.87Zm5.11-.36-.62,2.83h-2.92l.63-2.83Zm8.9-1.29,2.82.37a8.9,8.9,0,0,1-.76,1.61,5.2,5.2,0,0,1-1,1.17,4.56,4.56,0,0,1-3.18,1.19,3.86,3.86,0,0,1-3.08-1.33,4.92,4.92,0,0,1-1-3.5A7.29,7.29,0,0,1,309.92,55a5.7,5.7,0,0,1,1.92-1.82,5.19,5.19,0,0,1,2.5-.63,3.74,3.74,0,0,1,3.49,1.8,4,4,0,0,1,.52,2.34l-3,.22a2.37,2.37,0,0,0-.23-1.47,1,1,0,0,0-.94-.47,1.65,1.65,0,0,0-1.46,1.14,10.27,10.27,0,0,0-.51,1.64,8.83,8.83,0,0,0-.3,1.81,1.67,1.67,0,0,0,.27,1.16,1.14,1.14,0,0,0,.94.4,1.36,1.36,0,0,0,1-.4,4.09,4.09,0,0,0,.76-1.4m10.65-6.79a4.14,4.14,0,0,1,4.3,4.87,7.5,7.5,0,0,1-.54,2.41A7.85,7.85,0,0,1,328,61.83a5.15,5.15,0,0,1-4,1.82,4.25,4.25,0,0,1-3.36-1.41,4.73,4.73,0,0,1-1-3.43,7.93,7.93,0,0,1,.61-2.56,6.41,6.41,0,0,1,1.35-2.12,5.68,5.68,0,0,1,1.8-1.23,5.46,5.46,0,0,1,2.15-.42m-.2,2.46a1.78,1.78,0,0,0-1.55,1.11,7.86,7.86,0,0,0-.57,1.65,10.24,10.24,0,0,0-.3,1.94,1.57,1.57,0,0,0,.27,1.13,1.25,1.25,0,0,0,1,.41,1.48,1.48,0,0,0,.91-.28,2.4,2.4,0,0,0,.67-.92,8.43,8.43,0,0,0,.53-1.68,9.27,9.27,0,0,0,.32-1.8,1.58,1.58,0,0,0-.32-1.12,1.14,1.14,0,0,0-.94-.44m19.54-2.18L342.53,63.4h-3l1.23-5.67c.13-.59.23-1,.3-1.27l.33-1.11a5.1,5.1,0,0,0,.16-.62c-.08.2-.15.33-.16.37l-.29.72c-.19.43-.41.9-.63,1.38l-3.07,6.2h-1.92l-.4-6.2c0-.55,0-1,0-1.34v-.8c0-.06,0-.22,0-.46a5.83,5.83,0,0,1-.09.6l-.19,1.14c-.1.62-.16,1-.19,1.12l-.21.94-1.09,5h-2.41l2.34-10.64h4.27l.32,4.71,0,.32,0,.29a1.88,1.88,0,0,0,0,.2,6.8,6.8,0,0,1,.36-.8l2.32-4.71Z"/></g></g></svg>